<?xml version="1.0" standalone="no"?><!DOCTYPE svg PUBLIC "-//W3C//DTD SVG 1.1//EN" "http://www.w3.org/Graphics/SVG/1.1/DTD/svg11.dtd"><svg t="1616153175943" class="icon" viewBox="0 0 1024 1024" version="1.1" xmlns="http://www.w3.org/2000/svg" p-id="2211" xmlns:xlink="http://www.w3.org/1999/xlink" width="48" height="48"><defs><style type="text/css"></style></defs><path d="M1009.762845 56.889457 14.237155 56.889457C6.386724 56.889457 0.01536 50.546537 0.01536 42.667662L0.01536 14.224071C0.01536 6.37364 6.386724 0.002276 14.237155 0.002276L1009.762845 0.002276C1017.613276 0.002276 1023.98464 6.37364 1023.98464 14.224071L1023.98464 42.667662C1023.98464 50.546537 1017.613276 56.889457 1009.762845 56.889457ZM473.800257 197.087918C476.67306 194.215116 480.00096 192.167177 483.556409 190.773441L483.556409 184.885617C483.556409 177.035187 489.927773 170.663822 497.778205 170.663822L526.221795 170.663822C534.072227 170.663822 540.443591 177.035187 540.443591 184.885617L540.443591 190.773441C543.99904 192.167177 547.32694 194.215116 550.199743 197.087918L997.560544 644.44872C1008.653544 655.570164 1008.653544 673.574957 997.560544 684.696401 986.4391 695.789402 968.434307 695.789402 957.341307 684.696401L540.443591 267.798686 540.443591 1009.749761C540.443591 1017.600192 534.072227 1023.971557 526.221795 1023.971557L497.778205 1023.971557C489.927773 1023.971557 483.556409 1017.600192 483.556409 1009.749761L483.556409 267.798686 66.658693 684.696401C55.565693 695.789402 37.532456 695.789402 26.439456 684.696401 15.318011 673.574957 15.318011 655.570164 26.439456 644.44872L473.800257 197.087918Z" p-id="2212" fill="#d4237a"></path></svg>